<svg xmlns="http://www.w3.org/2000/svg" x="0px" y="0px" width="16" height="16" viewBox="0 0 256 256" style="fill:#FFFFFF;">
<g fill="#ffffff" fill-rule="nonzero" stroke="none" stroke-width="1" stroke-linecap="butt" stroke-linejoin="miter" stroke-miterlimit="10" stroke-dasharray="" stroke-dashoffset="0" font-family="none" font-weight="none" font-size="none" text-anchor="none" style="mix-blend-mode: normal">
<g transform="scale(5.33333,5.33333)">
<path d="M11.5,6c-3.01977,0 -5.5,2.48023 -5.5,5.5v25c0,3.01977 2.48023,5.5 5.5,5.5h25c3.01977,0 5.5,-2.48023 5.5,-5.5v-25c0,-3.01977 -2.48023,-5.5 -5.5,-5.5zM12.89063,17h2.63867c0.66,0 0.91992,0.29031 1.16992,1.07031c1.18,3.93 2.93031,6.92969 3.82031,6.92969c0.33,0 0.48047,-0.15906 0.48047,-1.03906v-3.62109c-0.1,-1.87 -1,-2.02922 -1,-2.69922c0,-0.32 0.20914,-0.64062 0.61914,-0.64062h4.65039c0.56,0 0.73047,0.31977 0.73047,1.00977v5.18945c0,0.59 0.44914,0.80078 0.61914,0.80078c0.33,0 0.64,0.02086 1.25,-0.61914c1.88,-2.22 3.52148,-5.58008 3.52148,-5.58008c0.17,-0.4 0.47867,-0.80078 1.13867,-0.80078h2.62109c0.59,0 0.82961,0.25914 0.84961,0.61914c0.01,0.13 -0.02055,0.26992 -0.06055,0.41992c-0.33,1.59 -3.68945,6.31156 -3.68945,6.35156c-0.15,0.25 -0.24,0.42938 -0.25,0.60938c-0.01,0.18 0.06,0.35914 0.25,0.61914c0.28,0.4 0.88,1.14086 1.5,1.88086c1.11,1.34 1.99945,2.75008 2.18945,3.33008c0.05,0.15 0.06055,0.28992 0.06055,0.41992c-0.01,0.5 -0.3607,0.75 -0.9707,0.75h-2.61914c-0.99,0 -1.3093,-0.98 -3.0293,-3c-1.5,-1.75 -2.28016,-2 -2.66016,-2c-0.54,0 -0.7207,0.12969 -0.7207,0.92969v2.98047c0,0.66 -0.16961,1.08984 -1.84961,1.08984c-2.77,0 -5.89953,-1.87914 -8.26953,-5.11914c-3.28,-4.49 -3.88086,-8.38133 -3.88086,-9.11133c0,-0.4 0.13063,-0.76953 0.89063,-0.76953z"></path>
</g>
</g>
</svg>